<svg xmlns="http://www.w3.org/2000/svg" xml:space="preserve" width="1500" height="164" data-id="lg_SBURdWmjYodbS0wlwd" data-version="1" viewBox="0 0 1500 164"><g data-padding="20"><g transform="translate(10 2.929)scale(.96429)"><rect width="439.031" height="169.5" x="282.812" y="-85.121" fill="none" rx="0" ry="0" transform="matrix(.97 0 0 .97 347.45 82.36)"/><path fill="#1a1a1a" d="M668.091 78.556q-1.56 1.135-5.47 3.337t-8.313 4.763q-4.404 2.55-8.38 4.898t-5.54 3.483q-3.123 2.415-4.268 5.538-1.135 3.133-1.135 6.751 0 3.628.708 7.528.718 3.909 1 7.886 0 1.988-1.28 3.695-1.28 1.708-3.27 1.708-.854 0-1.843-.495-1-.495-1-1.494l-3.268-91.083q0-.853.64-2.27.64-1.426 1.067-1.561.427 0 1.213.135.776.146 1.63.505.853.35 1.64.708.775.359 1.056.64.572 5.684.718 13.076.136 7.381.35 14.918.212 7.528.707 14.56.504 7.033 1.785 11.863 6.101-2.55 11.504-4.83 5.403-2.27 9.38-5.258 3.977-2.978 6.247-7.314 2.28-4.336 2.134-10.873 0-3.55-.136-6.247-.146-2.706-.572-5.335-.427-2.629-1.213-5.684-.776-3.056-1.91-7.033-.292-2.55.853-3.269 1.135-.708 2.696-.708 1.843 0 2.843.854.99.853 1.63 2.27.64 1.425.785 3.055.145 1.64.281 3.056.281 2.28.708 6.819.427 4.549.931 10.301.495 5.762 1.135 12.154t1.203 12.077q.572 5.684.931 10.233.35 4.54.63 6.82.428 5.392 1.145 10.65.708 5.257.708 10.806v2.27q0 1.134-.213 2.201t-.999 1.853q-.776.776-2.483 1.203-2.56-1.843-2.988-4.123-.427-2.27-.708-4.966-.136-1.571-.28-4.763-.147-3.2-.496-7.11-.359-3.9-.718-8.235-.349-4.336-.708-8.245t-.64-7.033-.427-4.685m55.271 32.671q-.563 1.707-2.765 4.617t-5.19 5.83q-2.977 2.91-6.178 5.111-3.2 2.202-5.616 2.202-4.54 0-7.46-4.268-2.91-4.258-4.47-10.932-1.563-6.683-2.135-14.85-.563-8.168-.709-15.986-.145-7.818-.145-14.21t-.427-9.662q.573-1.425 1.494-1.707.922-.281 2.202-.281 1.135 0 2.066.281.922.282 1.63 1.707 0 1.562.067 5.258.078 3.696.36 8.313t.572 9.66q.281 5.045.494 9.594.214 4.54.427 8.168t.35 5.325q.145.999.358 3.269.214 2.28.708 4.763.505 2.483 1.28 4.471.786 1.989 2.067 2.134 2.124 0 4.326-1.843 2.202-1.852 4.336-4.695t3.977-6.246q1.853-3.415 3.337-6.606 1.494-3.201 2.28-5.762.775-2.551.92-3.696.282-2.415.573-6.887.281-4.471.427-9.593.136-5.112.213-9.661.068-4.55.068-6.965l7.818.427q.136 11.514-.145 20.816-.28 9.312-.146 17.48.146 8.167 1.28 15.84 1.136 7.672 4.123 15.917-.426.427-1.707 1.213-1.28.776-1.843.776-3.56 0-4.763-2.347-1.212-2.338-1.56-5.54-.36-3.2-.574-6.391-.213-3.201-1.92-5.044m26.296 14.637q-1.56-19.187-2.764-38.441-1.212-19.255-2.628-39.993 0-3.415 3.695-3.415h1.135q.427 0 .99 1.135.572 1.145 1.212 4.19.64 3.056 1.416 9.245.786 6.179 1.92 16.121 1.136 9.952 2.562 24.87 2.978-9.66 4.685-18.759 1.707-9.089 4.404-16.548 2.706-7.46 7.604-13.144t14.143-8.39q5.112.854 8.235 6.189 3.124 5.325 4.976 13.143 1.843 7.809 2.561 16.975.708 9.167.844 17.547.146 8.381.146 14.996 0 6.606.28 9.448-.426 1.135-1.27 1.989-.853.853-1.92 1.203-1.067.359-2.067.145-.989-.213-1.843-1.494 0-1.561-.28-6.392-.292-4.83-.719-11.3-.426-6.46-.92-13.784-.496-7.314-.855-13.774-.349-6.47-.64-11.3-.28-4.831-.427-6.393-2.978-5.257-5.888-5.966-2.92-.717-5.83 1.844t-5.616 7.818q-2.696 5.257-5.112 11.863t-4.549 13.851-3.696 13.997q-1.56 6.752-2.628 12.223-1.067 5.47-1.349 8.448-.426 1-1.775 1.92-1.348.922-2.842 1.35-1.494.426-2.978.212-1.493-.213-2.21-1.63m71.75 2.977-3.55-61.808q-1.427.708-2.629 1.494-1.213.786-2.348 1.426-1.135.63-2.27.922-1.144.28-2.415 0-.854 0-1.426-1.067-.562-1.067-.92-2.416-.36-1.348-.496-2.696-.146-1.358 0-2.066l13.638-7.819.854-36.375q.281-1.843 2.27-1.484 1.988.35 4.122.922.281 0 .921.213.64.214.922.35-.28 3.84-.64 8.312-.35 4.482-.63 8.953-.292 4.482-.36 8.74-.068 4.268.36 7.673l21.31-5.966q.563-.145.922.776.36.931.708 2.212.36 1.27.504 2.551l.136 1.28-24.153 10.234q0 1.28.213 6.11.214 4.831.495 11.437.291 6.606.572 14.21.282 7.596.563 14.134.291 6.537.427 11.436.145 4.908.145 6.188-.28 4.259-2.483 4.259t-4.763-2.134m35.803-31.825q-.708.146-2.124.427-1.426.281-2.988.145-1.56-.145-2.774-.853-1.203-.718-1.203-2.415 0-1 .427-1.426.427-.427 1.416-1.28 3.133-2.552 5.335-6.606 2.202-4.045 4.045-8.663t3.91-9.234q2.056-4.627 4.762-8.313 2.696-3.696 6.673-5.975 3.977-2.27 9.807-2.124 2.415 0 5.393 1.135 2.988 1.134 5.55 3.055 2.55 1.92 4.257 4.617t1.707 5.966q.708 1.135-1.348 3.269-2.066 2.134-5.616 4.617t-8.022 5.112q-4.482 2.628-8.604 4.908-4.113 2.27-7.246 3.977-3.123 1.707-4.123 2.56-.708 1.417-1.134 3.27-.427 1.843-.64 3.472-.214 1.64-.282 2.988t-.068 2.056q0 2.707-.213 5.975t.281 6.18q.495 2.91 2.347 4.83 1.843 1.92 6.247 1.92 4.695 0 8.818-2.347 4.112-2.347 7.672-5.752 3.55-3.414 6.46-7.391t5.258-7.46 4.19-5.752q1.853-2.28 3.124-2.28 1.426 0 3.055.505 1.64.495 1.64 2.338 0 2.56-2.067 6.11-2.056 3.551-5.393 7.538-3.337 3.977-7.673 7.886-4.335 3.9-8.74 6.955-4.403 3.055-8.67 4.976-4.259 1.92-7.528 1.92-6.393 0-9.66-3.133-3.27-3.123-4.619-7.808-1.348-4.695-1.426-10.02-.067-5.326-.213-9.875m26.151-38.363q-2.415 0-5.12 2.347-2.698 2.338-5.045 5.684-2.338 3.337-3.832 6.82t-1.494 5.751q2.134 0 6.18-1.63 4.054-1.638 8.03-4.054 3.978-2.415 6.965-5.112 2.978-2.706 2.978-5.121 0-1.271-.989-2.125-1-.853-2.347-1.425-1.349-.563-2.775-.854-1.416-.281-2.55-.281m47.034 65.784-10.087-65.213v-1.145q0-1.416 1.067-1.988 1.067-.563 2.483-.563 1.145 0 2.134.214 1 .213 1.562 1.63.427 2.133.853 5.897t1 8.313q.562 4.549 1.202 9.593t1.28 9.516q.64 4.481 1.35 8.031.707 3.55 1.561 5.393-.427-13.638.853-23.658 1.28-10.01 4.908-16.335 3.62-6.324 9.943-8.807 6.324-2.493 15.84-1.067 4.404 0 4.404 4.685 0 1.853-2.415 2.493t-5.394.844q-2.987.213-5.83.504-2.84.281-4.122 1.416-5.112 2.842-7.168 8.808-2.066 5.975-2.92 14.075-.853 8.1-1.203 17.683-.359 9.593-1.92 19.681 0 1.426-1.135 2.134t-2.774.708q-1.63 0-3.124-.708t-2.347-2.134m58.83 1.136q0 .145 3.056-1.698 3.055-1.852 7.246-4.908 4.19-3.055 8.594-6.673 4.404-3.628 7.246-6.897t3.055-5.607q.214-2.347-3.909-3.055-5.112-.718-8.594.136t-6.324 1.988q-2.842 1.145-5.326 2.134-2.492 1-5.47.708-6.257 0-8.595-3.9-2.347-3.908-2.347-10.592 0-6.673 2.978-12.716 2.988-6.034 7.673-10.437 4.694-4.414 10.805-7.033 6.111-2.629 12.504-2.629 2.55 0 4.404.417 1.843.427 1.843 3.27 0 1.988-1.698 3.773-1.707 1.775-3.84 1.775-.147 0-.709-.214-.573-.213-1.135-.64-.572-.427-1.145-.64-.562-.213-.708-.213-4.55-1.28-8.807 1.28-4.259 2.551-7.605 6.887-3.337 4.336-5.326 9.38t-1.988 9.02q0 1.562.64 2.484.64.931 1.707 1.358 1.058.427 2.416.495 1.348.068 2.764.068 2.842 0 5.762-.854 2.91-.854 5.674-1.989 2.775-1.134 5.685-1.988 2.92-.854 6.043-.854 1.416 0 3.123.786 1.707.776 3.133 2.27 1.416 1.494 2.416 3.414.99 1.92 1.134 4.19.854 1.99-.504 5.258-1.348 3.269-4.045 6.965t-6.538 7.459q-3.83 3.764-7.672 6.82-3.832 3.055-7.528 4.975-3.695 1.911-6.256 1.775-2.842 0-3.337-1.707t-.495-3.841"/><path fill="#dfa46d" d="M487.177 22.39v119h107.741v-119Zm6.378 18.873V28.768h12.495v12.495Zm0 18.767V47.535h12.495V60.03Zm0 18.778V66.3h12.495v12.495Zm0 18.766V85.08h12.495v12.495Zm0 18.767v-12.495h12.495v12.494Zm0 18.778v-12.495h12.495v12.495Zm18.671-56.406V28.757h57.442v49.932Zm0 56.299V85.079h57.442v49.933Zm63.808-93.749V28.768h12.495v12.495Zm0 18.767V47.535h12.495V60.03Zm0 18.778V66.3h12.495v12.495Zm0 18.766V85.08h12.495v12.495Zm0 18.767v-12.495h12.495v12.494Zm0 18.778v-12.495h12.495v12.495Z"/></g><path fill="transparent" stroke="transparent" d="M470 0h560v164H470z"/></g></svg>